<svg height="512" viewBox="0 0 64 64" width="512" xmlns="http://www.w3.org/2000/svg"><g id="man-virus-mask-protect-covid19"><path d="m39 13h-14a4 4 0 0 0 -4 4v9a11 11 0 0 0 22 0v-9a4 4 0 0 0 -4-4z" fill="#ffa791"/><path d="m38 3h-8a4 4 0 0 0 -4 4 2 2 0 0 0 -2-2h-2a4 4 0 0 0 -4 4v13h3v-5a4 4 0 0 1 4-4h14a4 4 0 0 1 4 4v5h3v-11a8 8 0 0 0 -8-8z" fill="#58595b"/><path d="m38 3h-8a4 4 0 0 0 -4 4v6h13a4 4 0 0 1 4 4v5h3v-11a8 8 0 0 0 -8-8z" fill="#4f5052"/><path d="m56.081 51.806a12 12 0 0 0 -11.941-10.806h-5.14c-.027 0-.053-.007-.08-.008v.008a6.991 6.991 0 0 1 -13.84 0v-.008c-.027 0-.053.008-.08.008h-5.14a12 12 0 0 0 -11.941 10.806l-.919 9.194h50z" fill="#004fac"/><path d="m38.92 40.992v.008h.08c-.027 0-.053-.007-.08-.008z" fill="#00479b"/><path d="m56.081 51.806a12 12 0 0 0 -11.941-10.806h-2a12 12 0 0 1 11.941 10.806l.919 9.194h2z" fill="#00479b"/><path d="m37 35.778a10.84 10.84 0 0 1 -10 0v3.222a2 2 0 0 1 -1.92 1.992v.008a6.991 6.991 0 0 0 13.84 0v-.008a2 2 0 0 1 -1.92-1.992z" fill="#ffa791"/><path d="m37 37.778v-2a10.84 10.84 0 0 1 -10 0v2a10.84 10.84 0 0 0 10 0z" fill="#ff9478"/><path d="m45 57v4h12l-.4-4z" fill="#d80027"/><path d="m56.6 57h-2l.4 4h2z" fill="#c20023"/><path d="m19 57v4h-12l.4-4z" fill="#d80027"/><path d="m45 21h-2v5a10.98 10.98 0 0 1 -.188 2h2.188a2 2 0 0 0 2-2v-3a2 2 0 0 0 -2-2z" fill="#ff9478"/><path d="m19 21h2v5a10.98 10.98 0 0 0 .188 2h-2.188a2 2 0 0 1 -2-2v-3a2 2 0 0 1 2-2z" fill="#ff9478"/><path d="m28 18a1 1 0 0 0 -1 1v1a1 1 0 0 0 2 0v-1a1 1 0 0 0 -1-1z" fill="#58595b"/><path d="m36 18a1 1 0 0 0 -1 1v1a1 1 0 0 0 2 0v-1a1 1 0 0 0 -1-1z" fill="#58595b"/><path d="m45 52a1 1 0 0 1 1 1v8a0 0 0 0 1 0 0h-2a0 0 0 0 1 0 0v-8a1 1 0 0 1 1-1z" fill="#003f8a"/><path d="m19 52a1 1 0 0 1 1 1v8a0 0 0 0 1 0 0h-2a0 0 0 0 1 0 0v-8a1 1 0 0 1 1-1z" fill="#003f8a"/><path d="m39.769 27.64 3.231-4.524v-2.116-1.316l-4.769 6.676z" fill="#f1f2f2"/><path d="m25.768 26.36-4.768-6.675v1.315 2.115l3.232 4.525z" fill="#f1f2f2"/><path d="m33.06 21.662a2 2 0 0 0 -2.12 0l-6.94 4.338v7.534a10.966 10.966 0 0 0 16 0v-7.534z" fill="#57a4ff"/><path d="m37 24.125v3.451a5.944 5.944 0 0 1 -3.383 5.405 10.9 10.9 0 0 1 -9.617-.2v.756a10.966 10.966 0 0 0 16 0v-7.537z" fill="#2488ff"/></g></svg>