<svg id="Capa_1" enable-background="new 0 0 508.991 508.991" height="512" viewBox="0 0 508.991 508.991" width="512" xmlns="http://www.w3.org/2000/svg"><g><g><path d="m257.64 92.769c-4.142 0-7.5-3.357-7.5-7.5v-55.337c0-4.143 3.358-7.5 7.5-7.5s7.5 3.357 7.5 7.5v55.337c0 4.143-3.358 7.5-7.5 7.5z" fill="#ee6161"/></g><g><path d="m284.292 97.831c-1.207.001-2.43-.291-3.565-.906-3.642-1.973-4.995-6.524-3.022-10.167l15.437-28.498c.041-.074.082-.148.125-.222l10.354-17.655c2.096-3.573 6.691-4.771 10.264-2.676 3.573 2.096 4.771 6.69 2.676 10.264l-10.29 17.546-15.376 28.386c-1.359 2.507-3.939 3.928-6.603 3.928z" fill="#ee6161"/></g><g><path d="m301.598 115.968c-2.667 0-5.25-1.426-6.606-3.938-1.967-3.645-.607-8.195 3.038-10.162l28.625-15.451 17.813-9.965c3.616-2.02 8.185-.731 10.207 2.885 2.022 3.614.731 8.185-2.884 10.207l-17.863 9.992c-.033.018-.066.036-.099.054l-28.673 15.478c-1.135.61-2.355.9-3.558.9z" fill="#ee6161"/></g><g><path d="m306.411 232.616c-2.682 0-5.275-1.442-6.625-3.975l-9.626-18.063c-.041-.076-.081-.154-.119-.231l-19.263-39.38c-1.82-3.722-.279-8.213 3.442-10.033 3.719-1.819 8.212-.279 10.033 3.441l19.206 39.264 9.565 17.947c1.948 3.655.564 8.198-3.091 10.146-1.124.599-2.332.884-3.522.884z" fill="#ee6161"/></g><g><path d="m253.424 244.711c-.103 0-.207-.002-.311-.006-4.139-.169-7.357-3.661-7.188-7.8l.827-20.297v-35.47c0-4.143 3.358-7.5 7.5-7.5s7.5 3.357 7.5 7.5v35.622c0 .102-.002.204-.006.306l-.833 20.45c-.165 4.035-3.488 7.195-7.489 7.195z" fill="#ee6161"/></g><g><path d="m201.585 228.344c-1.389 0-2.793-.385-4.047-1.191-3.485-2.239-4.495-6.879-2.255-10.364l11.064-17.22c.027-.043.056-.086.084-.128l27.742-41.288c2.311-3.438 6.971-4.352 10.408-2.043 3.438 2.311 4.353 6.971 2.042 10.408l-27.698 41.225-11.023 17.155c-1.433 2.229-3.849 3.446-6.317 3.446z" fill="#ee6161"/></g><g><path d="m165.173 188.008c-2.736 0-5.373-1.503-6.695-4.11-1.874-3.694-.397-8.207 3.297-10.081l18.255-9.257c.038-.019.076-.038.114-.057l33.778-16.414c3.724-1.81 8.213-.258 10.023 3.468 1.811 3.726.258 8.214-3.468 10.024l-33.722 16.387-18.197 9.228c-1.086.55-2.244.812-3.385.812z" fill="#ee6161"/></g><g><path d="m209.194 138.322c-.167 0-.333-.005-.502-.017l-34.606-2.287-20.393-1.247c-4.134-.253-7.281-3.81-7.028-7.944s3.822-7.269 7.944-7.028l20.429 1.25 34.643 2.29c4.133.272 7.262 3.845 6.989 7.978-.262 3.964-3.56 7.005-7.476 7.005z" fill="#ee6161"/></g><g><path d="m212.65 108.375c-1.253 0-2.523-.314-3.692-.977l-24.095-13.658c-.165-.094-.326-.193-.483-.299l-16.99-11.412c-3.438-2.31-4.354-6.969-2.044-10.407 2.31-3.439 6.97-4.355 10.408-2.044l16.754 11.253 23.848 13.52c3.604 2.043 4.869 6.62 2.826 10.223-1.381 2.434-3.92 3.801-6.532 3.801z" fill="#ee6161"/></g><g><path d="m231.547 92.771c-2.746 0-5.39-1.514-6.707-4.134l-11.781-23.437-7.126-14.416c-1.835-3.713-.313-8.211 3.4-10.047 3.712-1.835 8.211-.313 10.047 3.4l7.104 14.371 11.758 23.392c1.86 3.7.368 8.209-3.333 10.069-1.08.544-2.23.802-3.362.802z" fill="#ee6161"/></g><g><path d="m361.304 143.226c-.052 0-.104-.001-.156-.002l-20.463-.417c-.064-.001-.128-.003-.193-.006l-36.722-1.694c-4.138-.191-7.337-3.7-7.146-7.838.191-4.137 3.681-7.319 7.838-7.146l36.625 1.69 20.367.415c4.141.084 7.43 3.51 7.346 7.65-.084 4.09-3.425 7.348-7.496 7.348z" fill="#ee6161"/></g><g><path d="m345.984 195.375c-1.338 0-2.693-.358-3.917-1.11l-17.441-10.711c-.063-.038-.124-.077-.185-.117l-26.959-17.66c-3.465-2.27-4.434-6.918-2.164-10.383 2.271-3.467 6.918-4.435 10.384-2.164l26.867 17.6 17.348 10.654c3.53 2.167 4.634 6.786 2.466 10.315-1.417 2.306-3.878 3.576-6.399 3.576z" fill="#ee6161"/></g><g><path d="m22.93 95.004h-15.43c-4.142 0-7.5-3.357-7.5-7.5s3.358-7.5 7.5-7.5h15.43c4.142 0 7.5 3.357 7.5 7.5s-3.358 7.5-7.5 7.5z" fill="#a6e7f0"/></g><g><path d="m22.93 162.335h-15.43c-4.142 0-7.5-3.357-7.5-7.5s3.358-7.5 7.5-7.5h15.43c4.142 0 7.5 3.357 7.5 7.5s-3.358 7.5-7.5 7.5z" fill="#a6e7f0"/></g><g><path d="m22.93 229.666h-15.43c-4.142 0-7.5-3.357-7.5-7.5s3.358-7.5 7.5-7.5h15.43c4.142 0 7.5 3.357 7.5 7.5s-3.358 7.5-7.5 7.5z" fill="#a6e7f0"/></g><g><path d="m22.93 296.998h-15.43c-4.142 0-7.5-3.357-7.5-7.5s3.358-7.5 7.5-7.5h15.43c4.142 0 7.5 3.357 7.5 7.5s-3.358 7.5-7.5 7.5z" fill="#a6e7f0"/></g><g><path d="m22.93 364.329h-15.43c-4.142 0-7.5-3.357-7.5-7.5s3.358-7.5 7.5-7.5h15.43c4.142 0 7.5 3.357 7.5 7.5s-3.358 7.5-7.5 7.5z" fill="#a6e7f0"/></g><g><path d="m22.93 431.661h-15.43c-4.142 0-7.5-3.357-7.5-7.5s3.358-7.5 7.5-7.5h15.43c4.142 0 7.5 3.357 7.5 7.5s-3.358 7.5-7.5 7.5z" fill="#a6e7f0"/></g><g><path d="m361.081 362.602v126.296h111.961v-196.552c0-4.76-5.621-7.309-9.184-4.153-30.646 27.145-64.183 50.432-99.849 69.535-1.799.964-2.928 2.832-2.928 4.874z" fill="#a7eedc"/><path d="m219.657 411.617v77.281h100.064v-106.265c0-1.806-1.831-3.023-3.501-2.335-30.459 12.545-62.109 22.218-94.538 28.844-1.178.24-2.025 1.272-2.025 2.475z" fill="#a6e7f0"/><path d="m116.962 419.736h-37.394c-1.761 0-3.188 1.427-3.188 3.188v65.974h100.064v-68.999c0-1.897-1.645-3.364-3.531-3.162-18.496 1.989-37.17 2.999-55.951 2.999z" fill="#fee97d"/><path d="m493.827 179.495h-23.123c-4.142 0-7.5 3.357-7.5 7.5s3.358 7.5 7.5 7.5h5.058c-46.222 44.809-99.755 80.145-159.301 105.123-63.508 26.642-130.629 40.15-199.499 40.15h-66.229c-4.142 0-7.5 3.357-7.5 7.5s3.358 7.5 7.5 7.5h66.229c70.874 0 139.947-13.901 205.302-41.318 61.333-25.729 116.466-62.135 164.063-108.308v9.223c0 4.143 3.358 7.5 7.5 7.5s7.5-3.357 7.5-7.5v-27.37c0-4.143-3.358-7.5-7.5-7.5z" fill="#f37c7c"/><g><path d="m501.491 497.298h-493.991c-4.142 0-7.5-3.357-7.5-7.5v-432.16c0-4.143 3.358-7.5 7.5-7.5s7.5 3.357 7.5 7.5v424.66h486.491c4.142 0 7.5 3.357 7.5 7.5s-3.358 7.5-7.5 7.5z" fill="#f37c7c"/></g><circle cx="257.64" cy="133.615" fill="#f79595" r="81.153"/><g fill="#f37c7c"><path d="m212.936 133.615c0-38.55 26.935-70.822 62.975-79.096-5.861-1.346-12.002-2.057-18.272-2.057-44.82 0-81.153 36.333-81.153 81.153s36.334 81.153 81.153 81.153c6.269 0 12.425-.723 18.286-2.069-36.039-8.273-62.989-40.534-62.989-79.084z"/><circle cx="318.514" cy="29.812" r="18.116"/><circle cx="360.182" cy="196.59" r="17.595"/><circle cx="252.74" cy="253.851" r="18.489"/><circle cx="150.314" cy="188.038" r="16.789"/><circle cx="157.747" cy="66.517" r="17.74"/></g><circle cx="247.469" cy="111.966" fill="#f9b1b1" r="23.76"/><g><path d="m247.469 181.139h-5.812c-4.142 0-7.5-3.357-7.5-7.5s3.358-7.5 7.5-7.5h5.812c4.142 0 7.5 3.357 7.5 7.5s-3.358 7.5-7.5 7.5z" fill="#f9b1b1"/></g><g><path d="m296.778 150.528h-4.979c-4.142 0-7.5-3.357-7.5-7.5s3.358-7.5 7.5-7.5h4.979c4.142 0 7.5 3.357 7.5 7.5s-3.358 7.5-7.5 7.5z" fill="#f9b1b1"/></g></g></g></svg>