<svg id="Capa_1" enable-background="new 0 0 512 512" height="512" viewBox="0 0 512 512" width="512" xmlns="http://www.w3.org/2000/svg"><g><g><ellipse cx="243.359" cy="256.753" fill="#bed9fd" rx="235.859" ry="235.859" transform="matrix(.707 -.707 .707 .707 -110.274 247.282)"/><path d="m449.76 142.558c7.973 23.663 12.298 49.004 12.298 75.356 0 130.261-105.598 235.859-235.859 235.859-88.83 0-166.177-49.116-206.402-121.663 31.44 93.306 119.651 160.502 223.56 160.502 130.261 0 235.859-105.597 235.859-235.859.001-41.431-10.695-80.359-29.456-114.195z" fill="#9ec8fc"/><path d="m235.595 368.516-100.839-25.048c-6.899-1.714-11.743-7.908-11.743-15.017v-17.796c0-3.503 1.189-6.902 3.371-9.642l7.189-9.023c5.501-6.905 15.656-7.815 22.297-1.997l16.366 14.335c6.968 6.104 17.809 4.093 22.125-4.103 2.423-4.601 2.164-10.154-.678-14.51l-31.963-48.991c-2.49-3.816-3.267-8.5-2.144-12.916l25.614-100.725c.229-.901.345-1.828.345-2.758v-10.899c0-6.18-5.01-11.189-11.189-11.189h-105.636c-38.032 41.878-61.21 97.49-61.21 158.516 0 1.722.028 3.437.065 5.15l69.214 41.455c4.667 2.795 7.523 7.835 7.523 13.274v42.136c0 7.352 5.173 13.688 12.375 15.16l59.354 12.129c7.449 1.522 12.798 8.075 12.798 15.678 0 3.438 1.107 6.785 3.158 9.544l13.166 17.717c6.317 8.5 9.728 18.809 9.728 29.4v29.218c15.647 3.269 31.859 4.997 48.476 4.997 21.167 0 41.675-2.804 61.193-8.034l20.72-27.559c7.286-9.692 11.226-21.489 11.226-33.614v-15.759c0-10.479-8.495-18.973-18.973-18.973h-63.937c-5.65 0-10.229-4.58-10.229-10.229.002-4.699-3.201-8.794-7.762-9.927z" fill="#6fbbc6"/><path d="m325.272 457.02c6.669-8.871 10.524-19.506 11.132-30.541-32.893 17.417-70.392 27.295-110.203 27.295-10.783 0-21.394-.729-31.792-2.131.815 5.893.336 7.86.475 35.973 15.199 3.176 31.566 4.997 48.476 4.997.033 0 .065-.001.097-.001 20.371-.006 41.086-2.671 61.095-8.032z" fill="#61aab8"/></g><g><circle cx="370.99" cy="152.898" fill="#eec06b" r="133.51"/><path d="m488.434 89.351c3.444 11.848 5.297 24.372 5.297 37.331 0 73.735-59.774 133.51-133.51 133.51-50.73 0-94.85-28.294-117.444-69.962 16.151 55.565 67.436 96.179 128.213 96.179 73.735 0 133.51-59.774 133.51-133.51 0-23.007-5.82-44.652-16.066-63.548z" fill="#e9a52d"/><g><circle cx="369.689" cy="154.955" fill="#d97b7b" r="50.242"/></g></g><g><path d="m452.665 182.587-5.029 8.71-24.62-14.214c2.84-6.819 4.416-14.291 4.416-22.126 0-8.425-1.829-16.426-5.086-23.65l10.281-5.935 1.448 2.508c1.39 2.406 3.91 3.751 6.502 3.751 1.272 0 2.563-.324 3.743-1.006 3.587-2.071 4.816-6.658 2.745-10.245l-10.396-18.006c-2.072-3.588-6.66-4.814-10.245-2.745-3.587 2.071-4.816 6.658-2.745 10.245l1.448 2.508-10.666 6.158c-9.103-11.17-22.294-18.872-37.27-20.824v-22.143h10.058c4.143 0 7.5-3.357 7.5-7.5s-3.357-7.5-7.5-7.5c-12.002 0-21.942 0-35.117 0-4.143 0-7.5 3.357-7.5 7.5s3.357 7.5 7.5 7.5h10.06v22.142c-15.119 1.971-28.414 9.804-37.525 21.147l-14.596-8.426 3.753-6.5c2.071-3.587.842-8.174-2.745-10.245-3.586-2.071-8.175-.842-10.245 2.745-3.419 5.925-10.059 17.423-15.01 25.997-2.071 3.587-.842 8.174 2.745 10.245 3.564 2.057 8.162.865 10.245-2.745l3.757-6.507 14.295 8.252c-3.152 7.125-4.917 14.997-4.917 23.277 0 8.371 1.805 16.323 5.023 23.51l-15.184 8.762-5.028-8.709c-2.072-3.588-6.66-4.815-10.245-2.745-3.587 2.071-4.816 6.658-2.745 10.245l17.559 30.412c2.082 3.605 6.675 4.806 10.245 2.745 3.587-2.071 4.816-6.658 2.745-10.245l-5.03-8.713 15.539-8.966c9.106 11.234 22.336 18.984 37.365 20.943v10.278h-2.761c-4.143 0-7.5 3.357-7.5 7.5s3.357 7.5 7.5 7.5h20.522c4.143 0 7.5-3.357 7.5-7.5s-3.357-7.5-7.5-7.5h-2.762v-10.277c15.555-2.028 29.18-10.261 38.303-22.137l24.644 14.229-5.03 8.712c-2.071 3.587-.842 8.174 2.745 10.245 1.182.682 2.471 1.006 3.743 1.006 2.592 0 5.113-1.345 6.502-3.751l17.559-30.412c2.071-3.587.842-8.174-2.745-10.245-3.592-2.071-8.178-.844-10.248 2.745zm-75.477 14.439v-7.737c0-4.143-3.357-7.5-7.5-7.5s-7.5 3.357-7.5 7.5v7.737c-20.002-3.557-35.242-21.061-35.242-42.07 0-23.569 19.175-42.744 42.743-42.744 12.488 0 23.74 5.385 31.563 13.953l-2.014 1.163c-3.587 2.071-4.816 6.658-2.745 10.245 1.389 2.406 3.91 3.751 6.502 3.751 2.915 0 4.404-1.545 6.278-2.469 2.03 4.973 3.159 10.407 3.159 16.102 0 21.008-15.241 38.512-35.244 42.069z"/><path d="m512 152.898c0-30.264-9.446-59.112-27.317-83.428-2.453-3.338-7.146-4.056-10.484-1.602-3.338 2.453-4.055 7.147-1.602 10.484 15.965 21.724 24.403 47.501 24.403 74.546 0 69.482-56.527 126.01-126.01 126.01s-126.01-56.527-126.01-126.01 56.527-126.01 126.01-126.01c28.983 0 56.228 9.565 78.786 27.662 3.231 2.591 7.951 2.073 10.544-1.157 2.592-3.231 2.073-7.952-1.157-10.544-24.89-19.965-56.203-30.961-88.173-30.961-20.209 0-39.434 4.282-56.828 11.972-22.881-6.941-46.684-10.47-70.802-10.47-65.003 0-126.116 25.314-172.081 71.279-45.965 45.967-71.279 107.079-71.279 172.082s25.314 126.115 71.279 172.081c45.965 45.965 107.078 71.279 172.081 71.279s126.115-25.314 172.08-71.279c45.965-45.966 71.279-107.078 71.279-172.081 0-7.322-.349-14.692-1-21.963 16.536-23.1 26.281-51.378 26.281-81.89zm-107.166 265.328c-23.156 23.156-50.412 40.717-80.127 52.026l6.559-8.724c8.211-10.919 12.732-24.457 12.732-38.121v-15.759c0-14.598-11.876-26.474-26.473-26.474h-63.938c-1.505 0-2.729-1.225-2.729-2.729 0-8.163-5.533-15.239-13.455-17.207l-100.839-25.048c-3.563-.885-6.051-4.066-6.051-7.737v-17.796c0-1.798.617-3.563 1.737-4.969l7.188-9.022c2.773-3.477 7.983-4.103 11.491-1.029l16.365 14.335c5.058 4.433 11.755 6.274 18.366 5.043 6.613-1.227 12.203-5.343 15.336-11.293 3.689-7.004 3.294-15.474-1.032-22.103l-31.963-48.991c-1.339-2.053-1.761-4.594-1.157-6.969l7.834-30.805c1.021-4.015-1.405-8.097-5.42-9.117-4.01-1.023-8.096 1.406-9.117 5.42l-7.834 30.806c-1.635 6.431-.493 13.305 3.132 18.86l31.963 48.992c2.648 4.058.337 9.559-4.477 10.451-2.073.383-4.165-.192-5.748-1.578l-16.365-14.335c-9.852-8.631-24.911-7.315-33.105 2.965l-7.188 9.023c-3.228 4.052-5.005 9.136-5.005 14.315v17.796c0 10.577 7.17 19.745 17.436 22.295l100.839 25.049c1.219.303 2.07 1.392 2.07 2.648 0 9.776 7.953 17.729 17.729 17.729h63.938c6.326 0 11.473 5.147 11.473 11.474v15.759c0 10.433-3.452 20.77-9.722 29.107l-19.192 25.527c-18.314 4.661-37.333 7.071-56.724 7.071-13.891 0-27.59-1.246-40.978-3.658v-23.056c0-4.143-3.357-7.5-7.5-7.5s-7.5 3.357-7.5 7.5v19.839c-39.585-9.93-75.89-30.404-105.497-60.011-38.667-38.667-61.745-88.76-66.112-142.663l57.152 34.231c2.391 1.432 3.876 4.053 3.876 6.84v42.136c0 10.867 7.728 20.333 18.374 22.508l59.354 12.129c3.94.806 6.8 4.309 6.8 8.33 0 5.016 1.647 9.994 4.639 14.018l7.511 10.107c2.467 3.319 7.164 4.019 10.493 1.546 3.324-2.47 4.017-7.168 1.546-10.493l-7.511-10.108c-1.082-1.455-1.678-3.255-1.678-5.069 0-11.116-7.905-20.8-18.796-23.026l-59.355-12.129c-3.695-.755-6.377-4.04-6.377-7.812v-42.136c0-8.031-4.279-15.583-11.169-19.709l-65.623-39.304c-.001-.291-.01-.58-.01-.87 0-56.191 20.174-109.275 57.071-151.013h102.276c2.034 0 3.689 1.655 3.689 3.689v10.899c0 .305-.038.609-.114.908l-9.009 35.428c-1.021 4.015 1.406 8.097 5.42 9.117 4.013 1.022 8.096-1.406 9.117-5.42l9.009-35.426c.383-1.505.577-3.056.577-4.607v-10.899c0-10.306-8.384-18.689-18.689-18.689h-87.783c42.558-40.252 97.978-62.348 156.796-62.348 17.443 0 34.707 1.964 51.532 5.843-39.017 25.108-64.912 68.919-64.912 118.665 0 77.753 63.257 141.01 141.01 141.01 39.391 0 75.054-16.242 100.664-42.373.039 1.74.066 3.48.066 5.216 0 60.996-23.754 118.342-66.886 161.475z"/></g></g></svg>