<svg id="icon" height="512" viewBox="0 0 128 128" width="512" xmlns="http://www.w3.org/2000/svg"><path d="m37.964 97.125-2.87-58.232 9.338-9.874h35.313c3.688 3.968 5.628 6.053 9.327 10.01l-3.744 58.1z" fill="#eeefee"/><path d="m80.072 91.52h-36.772l-2.489-50.514 6.035-6.382h30.454l.333.357c1.916 2.06 3.436 3.692 5.358 5.75l.33.354zm-34.637-2.242h32.535l3.053-47.371c-1.66-1.778-3.042-3.262-4.7-5.041h-28.511l-4.712 4.985z" fill="#bbbbcd"/><rect fill="#dbd8dd" height="10.089" rx="1.121" width="64.366" x="29.557" y="95.911"/><path d="m57.41 60.16-3.589-5.552q-.542-.009-1.514-.064v5.616h-2.478v-13.445q.2 0 1.551-.069t2.175-.069q5.121 0 5.121 3.964a3.638 3.638 0 0 1 -.707 2.175 3.815 3.815 0 0 1 -1.78 1.386l3.973 6.057zm-5.1-11.371v3.735q.661.055 1.009.055a4.348 4.348 0 0 0 2.189-.422 1.768 1.768 0 0 0 .693-1.643 1.433 1.433 0 0 0 -.744-1.386 5.231 5.231 0 0 0 -2.34-.394 6.228 6.228 0 0 0 -.81.055z" fill="#575b6d"/><path d="m61.355 60.16v-13.445h2.387v13.445z" fill="#575b6d"/><path d="m68.927 55.213v4.947h-2.387v-13.436q2.387-.1 2.79-.1a8.616 8.616 0 0 1 4.657.977 3.4 3.4 0 0 1 1.474 3.051q0 4.626-5.452 4.625-.404 0-1.082-.064zm0-6.424v4.3q.6.064.955.064a4.111 4.111 0 0 0 2.386-.546 2.044 2.044 0 0 0 .752-1.776q0-2.092-3.368-2.092a5.551 5.551 0 0 0 -.725.05z" fill="#575b6d"/><path d="m50.955 68.819h22.257v1.775h-22.257z" fill="#bbbbcd"/><path d="m53.921 74.331h16.326v1.775h-16.326z" fill="#bbbbcd"/><circle cx="86.604" cy="33.84" fill="#ef5261" r="11.84"/><path d="m86.6 43.53a9.69 9.69 0 1 1 9.69-9.69 9.7 9.7 0 0 1 -9.69 9.69z" fill="#eeefee"/><g fill="#ef5261"><circle cx="86.504" cy="33.87" r="3.743"/><circle cx="81.859" cy="28.073" r=".812"/><path d="m93.468 33.352a1.142 1.142 0 0 1 -1.125 1.157 1.1 1.1 0 0 1 -.839-.388.694.694 0 0 0 -.522-.251.68.68 0 0 0 -.241.044l-1.2.464.3.923a.976.976 0 0 0 .387.509.937.937 0 0 0 .512.164h.064s.047 0 .07 0a.743.743 0 1 1 -.7 1.034.988.988 0 0 0 -.276-.375l-.798-.663-.876.821-.164.716a1.356 1.356 0 0 0 .043.763l.021.062a1.271 1.271 0 0 0 .405.591.921.921 0 1 1 -1.4.37 1.439 1.439 0 0 0 .079-.98l-.033-.113-.355-.876h-1.17l-.521.585a1.384 1.384 0 0 0 -.169.239v.008a2.728 2.728 0 0 0 -.274 1.089.744.744 0 0 1 -.908.725.81.81 0 0 1 -.568-.605.741.741 0 0 1 .323-.738 1.4 1.4 0 0 0 .495-.524l.107-.206a1.273 1.273 0 0 0 .141-.522l.037-.733-.863-1.011-.92.021a.956.956 0 0 0 -.37.084.913.913 0 0 0 -.459.437 1.031 1.031 0 1 1 -.449-1.358.95.95 0 0 0 .646.089l.058-.013a.956.956 0 0 0 .385-.179l.563-.437.369-1.765-.243-.586a.631.631 0 0 0 -.189-.251.656.656 0 0 0 -.457-.135.776.776 0 0 1 -.275-.033.727.727 0 0 1 -.415-.338.741.741 0 1 1 1.357-.568.592.592 0 0 0 .23.313l.1.076a.657.657 0 0 0 .289.126l.55.089.862-.647.084-.7a.738.738 0 0 0 -.024-.294l-.052-.177a.764.764 0 0 0 -.324-.423 1.006 1.006 0 0 1 -.47-.842 1.107 1.107 0 0 1 2.208 0 .977.977 0 0 1 -.268.67.748.748 0 0 0 -.2.611.738.738 0 0 0 .115.305l.452.686 1.57.405.344-.149a2.741 2.741 0 0 0 .822-.55.544.544 0 0 0 .165-.391.743.743 0 1 1 .891.727.518.518 0 0 0 -.273.144 2.753 2.753 0 0 0 -.642 1.074l-.1.3.12.647.79.405a.657.657 0 0 0 .384.069l.23-.026a.679.679 0 0 0 .49-.326 1.114 1.114 0 0 1 .944-.528 1.141 1.141 0 0 1 1.13 1.159z"/><circle cx="81.647" cy="38.421" r=".539"/><circle cx="88.515" cy="28.072" r=".539"/><circle cx="91.17" cy="39.279" r=".772"/></g><circle cx="84.822" cy="32.767" fill="#da364c" r=".728"/><circle cx="88.426" cy="33.495" fill="#da364c" r=".565"/><circle cx="87.186" cy="36.032" fill="#da364c" r=".407"/><circle cx="86.912" cy="31.935" fill="#da364c" r=".407"/><circle cx="85.679" cy="34.533" fill="#da364c" r=".473"/></svg>