<?xml version="1.0" encoding="utf-8"?>
<!-- Generator: Adobe Illustrator 24.2.3, SVG Export Plug-In . SVG Version: 6.00 Build 0)  -->
<svg version="1.1" id="Layer_1" xmlns="http://www.w3.org/2000/svg" xmlns:xlink="http://www.w3.org/1999/xlink" x="0px" y="0px"
	 viewBox="0 0 248 148" style="enable-background:new 0 0 248 148;" xml:space="preserve">
<style type="text/css">
	.st0{fill:#3B5159;}
	.st1{opacity:0.5;fill-rule:evenodd;clip-rule:evenodd;fill:#CDDBE5;enable-background:new    ;}
	.st2{opacity:0.5;fill-rule:evenodd;clip-rule:evenodd;fill:#F69C79;enable-background:new    ;}
	.st3{fill-rule:evenodd;clip-rule:evenodd;fill:#7D728D;}
	.st4{fill:#F26C3D;}
	.st5{opacity:0.15;fill:#282827;enable-background:new    ;}
	.st6{opacity:0.3;fill:url(#SVGID_1_);enable-background:new    ;}
	.st7{fill:#F3805B;}
	.st8{opacity:0.3;fill:url(#SVGID_2_);enable-background:new    ;}
	.st9{fill:#ECE5E0;}
	.st10{opacity:0.4;fill:#FFFFFF;enable-background:new    ;}
	.st11{fill:#EF6A37;}
	.st12{opacity:0.3;fill:#231F20;enable-background:new    ;}
	.st13{fill:#726B65;}
	.st14{fill:#DF5B36;}
	.st15{fill:#B1C9D2;}
	.st16{opacity:0.34;fill:#EFF3F7;enable-background:new    ;}
	.st17{fill:#56BC80;}
	.st18{fill:#292E57;}
	.st19{fill:#119F6E;}
	.st20{fill:#24B27F;}
	.st21{opacity:0.31;fill:#231F20;enable-background:new    ;}
	.st22{fill:#503687;}
	.st23{opacity:0.3;fill:url(#SVGID_3_);enable-background:new    ;}
	.st24{opacity:0.3;fill:url(#SVGID_4_);enable-background:new    ;}
	.st25{fill:#574871;}
	.st26{opacity:0.3;fill:url(#SVGID_5_);enable-background:new    ;}
	.st27{fill:#4A3E5E;}
	.st28{fill:#365E7A;}
	.st29{opacity:0.3;fill:url(#SVGID_6_);enable-background:new    ;}
	.st30{fill:#284E66;}
	.st31{opacity:0.3;fill:url(#SVGID_7_);enable-background:new    ;}
	.st32{fill:#FFC335;}
	.st33{opacity:0.3;fill:url(#SVGID_8_);enable-background:new    ;}
	.st34{fill:#CC952B;}
	.st35{fill:#FAB217;}
	.st36{opacity:0.3;fill:url(#SVGID_9_);enable-background:new    ;}
	.st37{fill:#FFFFFF;}
</style>
<path class="st0" d="M124.1,146.9c-35.6,2.4-54-11.5-69.6-24.9c-15.6-13.4-33.8-10.5-39.8-41.9C8.2,45.9,51.4,41,73.7,21.4
	c34-29.9,77.2-10.7,99.4,10.2c23.6,22.2,75.9,16.9,57,65.7C214.5,137.7,162.1,144.3,124.1,146.9z"/>
<path class="st1" d="M67.4,65.4l0.9-2.6l2.6-0.9L68.3,61l-0.9-2.6L66.4,61l-2.6,0.9l2.6,0.9L67.4,65.4L67.4,65.4z"/>
<path class="st2" d="M55.1,85.5l1.2-3.2l3.2-1.2l-3.2-1.2l-1.2-3.2L54,79.9l-3.2,1.2l3.2,1.2L55.1,85.5L55.1,85.5z"/>
<path class="st2" d="M178.1,60.2l0.7-1.9l1.9-0.7l-1.9-0.7l-0.7-1.9l-0.7,1.9l-1.9,0.7l1.9,0.7L178.1,60.2L178.1,60.2z"/>
<path class="st3" d="M195.9,87.2l1.8-4.8l4.8-1.8l-4.8-1.7l-1.8-4.8l-1.7,4.8l-4.8,1.7l4.8,1.8L195.9,87.2z"/>
<path class="st2" d="M181.5,111.6l1.4-3.8l3.8-1.4l-3.8-1.4l-1.4-3.8l-1.4,3.8l-3.8,1.4l3.8,1.4L181.5,111.6L181.5,111.6z"/>
<path class="st3" d="M84.3,88.9l1.3-3.5l3.5-1.3l-3.5-1.3l-1.3-3.5l-1.3,3.5l-3.5,1.3l3.5,1.3L84.3,88.9z"/>
<path class="st4" d="M129.5,120.3h6.3c0.3,0,0.5,0.1,0.7,0.3c0.2,0.2,0.3,0.4,0.3,0.7l0,0v4.7h-8.2v-4.7c0-0.2,0.1-0.5,0.3-0.7
	C129.1,120.4,129.3,120.3,129.5,120.3L129.5,120.3z"/>
<path class="st5" d="M135.2,120.3h0.7c0.3,0,0.5,0.1,0.7,0.3c0.2,0.2,0.3,0.4,0.3,0.7l0,0v4.7h-1.6L135.2,120.3L135.2,120.3z"/>
<linearGradient id="SVGID_1_" gradientUnits="userSpaceOnUse" x1="128.5996" y1="24.8525" x2="130.1381" y2="24.8525" gradientTransform="matrix(1 0 0 -1 0 148)">
	<stop  offset="0" style="stop-color:#FFFFFF"/>
	<stop  offset="1" style="stop-color:#FFFFFF;stop-opacity:0"/>
</linearGradient>
<path class="st6" d="M131.4,126h-2.8v-4.7c0-0.3,0.1-0.5,0.3-0.7c0.2-0.2,0.4-0.3,0.7-0.3h1L131.4,126z"/>
<path class="st7" d="M166.2,120.3h6.3c0.3,0,0.5,0.1,0.7,0.3c0.2,0.2,0.3,0.4,0.3,0.7l0,0v4.7h-8.2v-4.7c0-0.2,0.1-0.5,0.3-0.7
	C165.7,120.4,165.9,120.3,166.2,120.3L166.2,120.3z"/>
<path class="st5" d="M171.8,120.3h0.7c0.2,0,0.5,0.1,0.7,0.3c0.2,0.2,0.3,0.4,0.3,0.7l0,0v4.7h-1.6L171.8,120.3L171.8,120.3z"/>
<linearGradient id="SVGID_2_" gradientUnits="userSpaceOnUse" x1="1694.0085" y1="24.8525" x2="1707.877" y2="24.8525" gradientTransform="matrix(1 0 0 -1 0 148)">
	<stop  offset="0" style="stop-color:#FFFFFF"/>
	<stop  offset="1" style="stop-color:#FFFFFF;stop-opacity:0"/>
</linearGradient>
<path class="st8" d="M168.1,126h-2.8v-4.7c0-0.3,0.1-0.5,0.3-0.7c0.2-0.2,0.4-0.3,0.7-0.3h1L168.1,126z"/>
<path class="st4" d="M146.6,120.3h8.2v5.7h-8.2V120.3z"/>
<path class="st7" d="M123.3,124h54.8v19h-54.8V124z"/>
<path class="st9" d="M139.6,74.7l-2.2-13.8h0c-1,0.1-25,3.3-41.3-22.7c-1-1.5-2.6-2.6-4.3-3c-1.8-0.4-3.6-0.1-5.2,0.9
	c-1.5,1-2.7,2.5-3.1,4.3s-0.1,3.6,0.8,5.2c11.1,17.7,25.4,24.6,35.4,27.4C130.5,76,138.7,74.8,139.6,74.7z"/>
<path class="st10" d="M89.8,38.7c1.2-0.6,1.9-1.7,1.5-2.4c-0.4-0.7-1.7-0.8-2.9-0.1c-1.2,0.6-1.9,1.7-1.5,2.4S88.5,39.3,89.8,38.7z"
	/>
<path class="st9" d="M123.4,52.1l2.2,13.8h0c1-0.1,25-3.3,41.3,22.7c1,1.6,2.6,2.7,4.4,3.1c1.8,0.4,3.7,0.1,5.3-0.9
	c1.6-1,2.7-2.6,3.1-4.4c0.4-1.8,0.1-3.7-0.9-5.3c-11.1-17.7-25.4-24.6-35.4-27.4C132.5,50.8,124.3,51.9,123.4,52.1L123.4,52.1z"/>
<path class="st9" d="M136.3,52.7c4.6,0,9.1,1.6,12.6,4.6c3.5,3,5.8,7.1,6.6,11.7l4,36.3c-0.6,1.3-1.5,2.4-2.6,3.2
	c-1.1,0.8-2.4,1.4-3.8,1.6c-0.5,0.1-0.9,0.1-1.4,0.1h-38.4c-2.3,0-4.6-0.9-6.3-2.6s-2.6-3.9-2.6-6.3c0-0.5,0-0.9,0.1-1.4l5-31
	c0.7-4.6,3.1-8.7,6.6-11.7c3.5-3,8-4.6,12.6-4.6H136.3z"/>
<path class="st11" d="M148.1,67.6H144c-0.9,0-1.7,0.7-1.7,1.7v4.1c0,0.9,0.7,1.7,1.7,1.7h4.1c0.9,0,1.7-0.7,1.7-1.7v-4.1
	C149.8,68.4,149,67.6,148.1,67.6z"/>
<path class="st12" d="M132.6,64.4c13.1,0,23.8-11.4,23.8-25.4s-10.6-25.4-23.8-25.4c-13.1,0-23.8,11.4-23.8,25.4
	S119.5,64.4,132.6,64.4z"/>
<path class="st13" d="M132,16.8l0.3-9.8l2.3,0.1l-0.3,9.8L132,16.8z"/>
<path class="st13" d="M109,45.9l-3.4-0.8c-0.6-0.1-1.1-0.4-1.5-0.9c-0.4-0.4-0.6-1-0.7-1.6l-0.4-3c-0.1-0.6,0-1.2,0.3-1.7
	c0.3-0.5,0.7-0.9,1.2-1.2l3.1-1.6L109,45.9z"/>
<path class="st13" d="M155.6,47.4l3.4-0.6c0.6-0.1,1.1-0.4,1.5-0.8c0.4-0.4,0.7-0.9,0.8-1.5l0.6-3c0.1-0.6,0-1.2-0.2-1.7
	c-0.2-0.5-0.6-1-1.1-1.3l-3-1.8L155.6,47.4z"/>
<path class="st9" d="M132.6,63.2c14,0,25.4-11.4,25.4-25.4s-11.4-25.4-25.4-25.4c-14,0-25.4,11.4-25.4,25.4S118.6,63.2,132.6,63.2z"
	/>
<path class="st11" d="M137.3,5c0.4-2-1-4-3-4.3c-2-0.4-4,1-4.3,3c-0.4,2,1,4,3,4.3C135.1,8.4,137,7,137.3,5z"/>
<path class="st10" d="M133.3,2.6c0.5-0.2,0.9-0.6,0.8-0.9s-0.6-0.5-1.2-0.3s-0.9,0.6-0.8,0.9C132.2,2.6,132.7,2.7,133.3,2.6z"/>
<path class="st14" d="M134.4,6.5c-0.8,0.2-1.5,0.2-2.3,0c-0.8-0.2-1.4-0.6-2-1.1c0.3,0.9,0.8,1.7,1.6,2.2c0.8,0.5,1.7,0.7,2.7,0.5
	c0.9-0.2,1.7-0.7,2.3-1.5c0.6-0.8,0.8-1.7,0.7-2.6c-0.3,0.6-0.7,1.2-1.2,1.6C135.7,6,135,6.3,134.4,6.5L134.4,6.5z"/>
<path class="st15" d="M153.2,41.3c-0.3,8.4-9.8,17.1-21.3,16.8s-20.4-9.8-20.1-18.1c0.3-8.3,1-15.1,21.2-14.4
	C152.3,26.1,153.5,33,153.2,41.3z"/>
<path class="st16" d="M122,31.2c1.3-1.2-0.5-3.4-2.1-2.7c-4.8,2-5.9,6.6-6.1,11.6c-0.1,3,1.2,6.2,3.4,9c0.1,0.1,0.2,0.2,0.3,0.2
	c0.1,0,0.3,0,0.4-0.1c0.1-0.1,0.1-0.1,0.2-0.2c0-0.1,0-0.2,0-0.3C116.4,42.5,116.4,36.7,122,31.2z"/>
<path class="st17" d="M75.5,38.1l2.6-1.3c0.1-0.1,0.2-0.1,0.3,0c0.1,0,0.2,0.1,0.3,0.2l0,0l0.9,2l-3.4,1.7l-0.9-2c0-0.1,0-0.1,0-0.2
	c0-0.1,0-0.1,0-0.2c0-0.1,0-0.1,0.1-0.1C75.4,38.1,75.4,38.1,75.5,38.1L75.5,38.1z"/>
<path class="st17" d="M82.9,34.5l2.6-1.3c0.1,0,0.2-0.1,0.3,0c0.1,0,0.2,0.1,0.2,0.2l0,0l0.9,2L83.7,37l-0.9-2c0-0.1-0.1-0.2,0-0.3
	C82.8,34.6,82.8,34.5,82.9,34.5L82.9,34.5z"/>
<path class="st18" d="M92.8,29.7l0.3-0.1c0.1,0,0.2-0.1,0.3,0c0.1,0,0.2,0.1,0.3,0.2l0.9,2l-0.7,0.3L92.8,29.7L92.8,29.7z"/>
<path class="st17" d="M90.4,30.8l2.6-1.3c0.1-0.1,0.2-0.1,0.3,0c0.1,0,0.2,0.1,0.3,0.2l1,2l-3.4,1.7l-1-2c0-0.1,0-0.1,0-0.2
	c0-0.1,0-0.1,0-0.2c0-0.1,0-0.1,0.1-0.2C90.3,30.9,90.3,30.9,90.4,30.8L90.4,30.8z"/>
<path class="st19" d="M92.8,29.7l0.3-0.1c0.1,0,0.2-0.1,0.3,0c0.1,0,0.2,0.1,0.3,0.2l0.9,2l-0.7,0.3L92.8,29.7L92.8,29.7z"/>
<path class="st19" d="M85.3,33.3l0.3-0.1c0.1,0,0.1,0,0.2,0c0.1,0,0.1,0,0.2,0c0.1,0,0.1,0,0.1,0.1c0,0,0.1,0.1,0.1,0.1l0,0l1,2
	l-0.7,0.3L85.3,33.3L85.3,33.3z"/>
<path class="st19" d="M77.8,36.9l0.3-0.1c0.1,0,0.2-0.1,0.3,0c0.1,0,0.2,0.1,0.2,0.2l0,0l1,2L79,39.3L77.8,36.9L77.8,36.9z"/>
<path class="st20" d="M73.6,40.9l22.8-11l3.8,7.9l-22.8,11L73.6,40.9z"/>
<path class="st19" d="M95.2,30.5l1.2-0.6l3.8,7.9l-1.2,0.6L95.2,30.5z"/>
<path class="st21" d="M96.2,39.4c0,0-3.6-2.2-4.5,0.6c-1,2.9,4.3,4.2,6.4,3.1C96,42.3,96.2,39.4,96.2,39.4z"/>
<path class="st9" d="M92,40.5c-0.2,1.9,2.5,3.7,5,3.6c0.3,0,0.6-0.1,0.8-0.3c0.2-0.2,0.4-0.4,0.6-0.6c0.1-0.3,0.2-0.5,0.2-0.8
	c0-0.3-0.1-0.6-0.3-0.8c-1.3-1.9-3.4-4.1-5.8-2C92.2,39.7,92,40.1,92,40.5L92,40.5z"/>
<path class="st22" d="M109.9,120.3h8.2v5.7h-8.2V120.3z"/>
<path class="st4" d="M74.7,120.3H81c0.2,0,0.5,0.1,0.7,0.3c0.2,0.2,0.3,0.4,0.3,0.7l0,0v4.7h-8.2v-4.7c0-0.2,0.1-0.5,0.3-0.7
	C74.2,120.4,74.5,120.3,74.7,120.3L74.7,120.3z"/>
<path class="st5" d="M80.4,120.3H81c0.2,0,0.5,0.1,0.7,0.3c0.2,0.2,0.3,0.4,0.3,0.7l0,0v4.7h-1.6L80.4,120.3L80.4,120.3z"/>
<linearGradient id="SVGID_3_" gradientUnits="userSpaceOnUse" x1="779.4693" y1="24.8525" x2="793.3105" y2="24.8525" gradientTransform="matrix(1 0 0 -1 0 148)">
	<stop  offset="0" style="stop-color:#FFFFFF"/>
	<stop  offset="1" style="stop-color:#FFFFFF;stop-opacity:0"/>
</linearGradient>
<path class="st23" d="M76.6,126h-2.8v-4.7c0-0.3,0.1-0.5,0.3-0.7c0.2-0.2,0.4-0.3,0.7-0.3h1L76.6,126z"/>
<path class="st4" d="M91.8,120.3h8.2v5.7h-8.2V120.3z"/>
<path class="st4" d="M109.7,120.3h8.2v5.7h-8.2V120.3z"/>
<path class="st4" d="M68.5,124h54.8v19H68.5V124z"/>
<linearGradient id="SVGID_4_" gradientUnits="userSpaceOnUse" x1="1148.4305" y1="14.4474" x2="1181.7457" y2="14.4474" gradientTransform="matrix(1 0 0 -1 0 148)">
	<stop  offset="0" style="stop-color:#FFFFFF"/>
	<stop  offset="1" style="stop-color:#FFFFFF;stop-opacity:0"/>
</linearGradient>
<path class="st24" d="M73.1,143.1h-4.6v-19h1.9L73.1,143.1z"/>
<path class="st5" d="M178,143.1H83.6l-3-19l97.5,0L178,143.1z"/>
<path class="st22" d="M125.8,101.1h8.2v5.7h-8.2V101.1z"/>
<path class="st25" d="M150,101.1h6.3c0.3,0,0.5,0.1,0.7,0.3c0.2,0.2,0.3,0.4,0.3,0.7v4.8h-8.2V102c0-0.3,0.1-0.5,0.3-0.7
	C149.5,101.2,149.8,101.1,150,101.1L150,101.1z"/>
<path class="st5" d="M150,101.1h6.3c0.3,0,0.5,0.1,0.7,0.3c0.2,0.2,0.3,0.4,0.3,0.7v4.8h-8.2V102c0-0.3,0.1-0.5,0.3-0.7
	C149.5,101.2,149.8,101.1,150,101.1L150,101.1z"/>
<path class="st5" d="M155.6,101.1h0.7c0.3,0,0.5,0.1,0.7,0.3c0.2,0.2,0.3,0.4,0.3,0.7v4.8h-1.6L155.6,101.1L155.6,101.1z"/>
<linearGradient id="SVGID_5_" gradientUnits="userSpaceOnUse" x1="1532.1134" y1="44.0706" x2="1545.9816" y2="44.0706" gradientTransform="matrix(1 0 0 -1 0 148)">
	<stop  offset="0" style="stop-color:#FFFFFF"/>
	<stop  offset="1" style="stop-color:#FFFFFF;stop-opacity:0"/>
</linearGradient>
<path class="st26" d="M151.9,106.8h-2.8V102c0-0.3,0.1-0.5,0.3-0.7c0.2-0.2,0.4-0.3,0.7-0.3h1L151.9,106.8z"/>
<path class="st27" d="M107.8,105h54.8v19h-54.8V105z"/>
<path class="st28" d="M90.6,101.1h6.3c0.2,0,0.5,0.1,0.7,0.3c0.2,0.2,0.3,0.4,0.3,0.7v4.8h-8.2V102c0-0.3,0.1-0.5,0.3-0.7
	C90.1,101.2,90.3,101.1,90.6,101.1L90.6,101.1z"/>
<path class="st5" d="M96.2,101.1h0.7c0.2,0,0.5,0.1,0.7,0.3c0.2,0.2,0.3,0.4,0.3,0.7v4.8h-1.6L96.2,101.1L96.2,101.1z"/>
<linearGradient id="SVGID_6_" gradientUnits="userSpaceOnUse" x1="937.8177" y1="44.0693" x2="951.686" y2="44.0693" gradientTransform="matrix(1 0 0 -1 0 148)">
	<stop  offset="0" style="stop-color:#FFFFFF"/>
	<stop  offset="1" style="stop-color:#FFFFFF;stop-opacity:0"/>
</linearGradient>
<path class="st29" d="M92.4,106.8h-2.8V102c0-0.2,0.1-0.5,0.3-0.7c0.2-0.2,0.4-0.3,0.7-0.3h1L92.4,106.8z"/>
<path class="st4" d="M107.6,101.1h8.2v5.7h-8.2V101.1z"/>
<path class="st4" d="M125.6,101.1h8.2v5.7h-8.2V101.1z"/>
<path class="st30" d="M84.3,105h54.8v19H84.3V105z"/>
<linearGradient id="SVGID_7_" gradientUnits="userSpaceOnUse" x1="1394.7992" y1="33.4868" x2="1427.975" y2="33.4868" gradientTransform="matrix(1 0 0 -1 0 148)">
	<stop  offset="0" style="stop-color:#FFFFFF"/>
	<stop  offset="1" style="stop-color:#FFFFFF;stop-opacity:0"/>
</linearGradient>
<path class="st31" d="M88.9,124h-4.6v-19h1.9L88.9,124z"/>
<path class="st5" d="M139.3,124H102l-5.6-19l43,0L139.3,124z"/>
<path class="st5" d="M162.6,124h-4.4l-2.5-19h6.9L162.6,124z"/>
<path class="st32" d="M110.7,84.7h6.3c0.2,0,0.5,0.1,0.7,0.3c0.2,0.2,0.3,0.4,0.3,0.7v4.7h-8.2v-4.7c0-0.2,0.1-0.5,0.3-0.7
	C110.2,84.8,110.4,84.7,110.7,84.7L110.7,84.7z"/>
<linearGradient id="SVGID_8_" gradientUnits="userSpaceOnUse" x1="1138.8945" y1="60.4392" x2="1152.7627" y2="60.4392" gradientTransform="matrix(1 0 0 -1 0 148)">
	<stop  offset="0" style="stop-color:#FFFFFF"/>
	<stop  offset="1" style="stop-color:#FFFFFF;stop-opacity:0"/>
</linearGradient>
<path class="st33" d="M112.6,90.4h-2.8v-4.7c0-0.2,0.1-0.5,0.3-0.7c0.2-0.2,0.4-0.3,0.7-0.3h1L112.6,90.4z"/>
<path class="st32" d="M128.7,84.7h6.3c0.2,0,0.5,0.1,0.7,0.3c0.2,0.2,0.3,0.4,0.3,0.7v4.7h-8.2v-4.7c0-0.2,0.1-0.5,0.3-0.7
	C128.2,84.8,128.4,84.7,128.7,84.7L128.7,84.7z"/>
<path class="st34" d="M134.3,84.7h0.6c0.3,0,0.5,0.1,0.7,0.3c0.2,0.2,0.3,0.4,0.3,0.7l0,0v4.7h-1.6L134.3,84.7L134.3,84.7z"/>
<path class="st34" d="M116.3,84.7h0.6c0.1,0,0.2,0,0.4,0.1c0.1,0,0.2,0.1,0.3,0.2c0.1,0.1,0.2,0.2,0.2,0.3c0,0.1,0.1,0.2,0.1,0.4
	l0,0v4.7h-1.6L116.3,84.7L116.3,84.7z"/>
<path class="st35" d="M104.4,88.4h38.3V105h-38.3V88.4z"/>
<linearGradient id="SVGID_9_" gradientUnits="userSpaceOnUse" x1="1725.4061" y1="51.282" x2="1759.1049" y2="51.282" gradientTransform="matrix(1 0 0 -1 0 148)">
	<stop  offset="0" style="stop-color:#FFFFFF"/>
	<stop  offset="1" style="stop-color:#FFFFFF;stop-opacity:0"/>
</linearGradient>
<path class="st36" d="M109.1,105h-4.7V88.4h1.9L109.1,105z"/>
<path class="st34" d="M142.5,105h-16.4l-1.8-16.6h18.1V105z"/>
<path class="st37" d="M117.2,137h-4.4l-0.8,2.5h-3.4l4.8-13.2h3l4.9,13.2H118L117.2,137z M113.6,134.5h2.8L115,130L113.6,134.5z"/>
<path class="st37" d="M125.4,135.1v4.4h-3.2v-13.2h5.3c0.9,0,1.9,0.2,2.7,0.6c0.7,0.3,1.4,0.9,1.8,1.6c0.4,0.7,0.6,1.5,0.6,2.3
	c0,0.6-0.1,1.2-0.3,1.7c-0.2,0.5-0.6,1-1.1,1.4c-0.9,0.8-2.2,1.2-3.8,1.2L125.4,135.1z M125.4,132.6h2c0.5,0,1-0.1,1.4-0.5
	c0.2-0.2,0.3-0.4,0.4-0.6c0.1-0.2,0.1-0.5,0.1-0.7c0-0.5-0.1-1-0.5-1.5c-0.2-0.2-0.4-0.3-0.6-0.4c-0.2-0.1-0.5-0.1-0.7-0.1h-2.1
	V132.6z"/>
<path class="st37" d="M137.7,139.5h-3.2v-13.2h3.2V139.5z"/>
</svg>
